<mxfile host="app.diagrams.net" modified="2024-06-19T02:07:25.595Z" agent="Mozilla/5.0 (Windows NT 10.0; Win64; x64) AppleWebKit/537.36 (KHTML, like Gecko) Chrome/125.0.0.0 Safari/537.36" version="24.5.5" etag="AyV68l3EpQjmwE9_Fi_X" type="github">
  <diagram name="Page-1" id="4uaIdqZoWXqLpEbhsFv2">
    <mxGraphModel>
      <root>
        <mxCell id="0" />
        <mxCell id="1" parent="0" />
      </root>
    </mxGraphModel>
  </diagram>
</mxfile>
